<mxfile host="Electron" modified="2023-07-14T10:23:23.439Z" agent="Mozilla/5.0 (Windows NT 10.0; Win64; x64) AppleWebKit/537.36 (KHTML, like Gecko) draw.io/21.6.1 Chrome/112.0.5615.204 Electron/24.6.1 Safari/537.36" etag="z9ObtmPKuaXsMc18pIcc" version="21.6.1" type="device">
  <diagram name="Seite-1" id="VeDBoQS9z83jd3c0LuBd">
    <mxGraphModel dx="-1086" dy="2686" grid="1" gridSize="10" guides="1" tooltips="1" connect="1" arrows="1" fold="1" page="1" pageScale="1" pageWidth="827" pageHeight="1169" math="0" shadow="0">
      <root>
        <mxCell id="0" />
        <mxCell id="1" value="Rechteckrohr 40-15-2" parent="0" />
        <mxCell id="et7Q666M3RWp99xqM_v0-1" value="" style="rounded=0;whiteSpace=wrap;html=1;rotation=90;" vertex="1" parent="1">
          <mxGeometry x="-219.31" y="299.31" width="4330.7" height="157.48" as="geometry" />
        </mxCell>
        <mxCell id="et7Q666M3RWp99xqM_v0-7" value="" style="rounded=0;whiteSpace=wrap;html=1;rotation=90;" vertex="1" parent="1">
          <mxGeometry x="2142" y="299.31" width="4330.7" height="157.48" as="geometry" />
        </mxCell>
        <mxCell id="et7Q666M3RWp99xqM_v0-2" value="U-Profil 60-60-60-4" parent="0" />
        <mxCell id="et7Q666M3RWp99xqM_v0-3" value="" style="rounded=0;whiteSpace=wrap;html=1;" vertex="1" parent="et7Q666M3RWp99xqM_v0-2">
          <mxGeometry x="1867" y="-1787" width="2519.68" height="236.22" as="geometry" />
        </mxCell>
        <mxCell id="et7Q666M3RWp99xqM_v0-4" value="verborgene Linien" parent="0" />
        <mxCell id="et7Q666M3RWp99xqM_v0-6" value="" style="endArrow=none;dashed=1;html=1;rounded=0;entryX=0;entryY=0;entryDx=0;entryDy=0;exitX=0.054;exitY=-0.001;exitDx=0;exitDy=0;exitPerimeter=0;" edge="1" parent="et7Q666M3RWp99xqM_v0-4" source="et7Q666M3RWp99xqM_v0-1" target="et7Q666M3RWp99xqM_v0-1">
          <mxGeometry width="50" height="50" relative="1" as="geometry">
            <mxPoint x="2025" y="-1552.09" as="sourcePoint" />
            <mxPoint x="2025" y="-1779" as="targetPoint" />
          </mxGeometry>
        </mxCell>
        <mxCell id="et7Q666M3RWp99xqM_v0-8" value="" style="endArrow=none;dashed=1;html=1;rounded=0;entryX=0;entryY=0;entryDx=0;entryDy=0;exitX=0.054;exitY=-0.001;exitDx=0;exitDy=0;exitPerimeter=0;" edge="1" parent="et7Q666M3RWp99xqM_v0-4">
          <mxGeometry width="50" height="50" relative="1" as="geometry">
            <mxPoint x="4229" y="-1552" as="sourcePoint" />
            <mxPoint x="4229" y="-1786" as="targetPoint" />
          </mxGeometry>
        </mxCell>
      </root>
    </mxGraphModel>
  </diagram>
</mxfile>
